<svg xmlns="http://www.w3.org/2000/svg" viewBox="0 0 861.71 320.1">
  <path
    d="M440.35 128.27c0 15.22-10.67 26.91-41.21 26.91h-59.5V59.81h61.65c29.29 0 36.67 13.2 36.67 25.55 0 11.01-5.68 15.32-11.92 18.96v2.04c8.86 4.77 14.3 11.13 14.3 21.91Zm-66.43-42.24v11.92h23.5c6.35 0 7.72-3.6 7.72-5.9 0-2.5-1.36-6-7.72-6l-23.5-.02Zm31.69 36.43c0-2.4-1.36-6.35-7.72-6.35h-23.97v12.83h23.95c6.37.02 7.73-4.41 7.73-6.47ZM446.6 59.81h34.29v66.77h49.5v28.61H446.6V59.81ZM611.46 143.72h-38.83l-3.64 11.47h-35.4l34.38-95.38h48.14l34.52 95.41h-35.54l-3.64-11.5Zm-8.06-25.32L595 92.06h-5.9l-8.4 26.34h22.71ZM643.71 107.5c0-30.77 21.46-50.87 54.04-50.87 23.96 0 48.71 10.56 51.32 44.17h-32.7c-2.15-9.88-8.86-14.53-18.6-14.53-11.01 0-19.98 8.06-19.98 21.24s9 21.23 19.98 21.23c9.76 0 16.46-4.66 18.6-14.76h32.7c-2.61 33.84-27 44.4-51.32 44.4-32.59 0-54.04-20.1-54.04-50.87ZM826.74 155.18l-23.62-32.12h-2.15l-11.92 12.83v19.3h-34.2V59.81h34.2v35.2h2.27l31.34-35.2h38.15l-38.49 42.46 39.4 52.91h-34.97ZM337.37 227.6h30.77c.23 5.68 4.99 9 17.94 9.2 11.12.11 15.89-2.84 15.89-6.25 0-1.8-.46-5-9.08-6.13l-12.49-1.93c-17.93-2.84-40.87-4.09-40.87-29.74 0-19.2 15.33-31 46.89-31 28.16 0 47.8 7.27 47.01 35.65h-30.66c-1.02-5.56-5.9-8.96-17.14-8.96-9.65 0-13.17 2.72-13.17 6.13 0 1.59.79 4.77 7.27 5.79l9.99 1.59c19.2 3.18 46.44 2.84 46.44 30.09 0 21.34-16.35 31.56-50.07 31.45-34.18-.11-49.74-10.33-48.71-35.88ZM441.6 164.92h55.52c26.23 0 42.24 11.35 42.24 38.04s-16.01 37.92-42.12 37.92h-21.35v19.41H441.6v-95.37Zm52.45 47.46c6.36 0 10.56-3.18 10.56-9.42s-4.2-9.54-10.45-9.54h-18.28v18.96h18.17ZM545.6 164.92h34.29v95.37H545.6v-95.37ZM659.26 260.29l-23.62-32.13h-2.16l-11.92 12.83v19.3h-34.2v-95.37h34.2v35.2h2.27l31.33-35.2h38.15l-38.49 42.46 39.4 52.9h-34.97ZM696.73 164.92h87.77v27.36h-53.48v9.31h51.43v22.03h-51.43v9.19h53.47v27.48h-87.76v-95.37ZM143.53 0 97.08 20.56v52.75l20.81 38.1 25.84 34.57 25.33-33.77 21.34-38.96V20.54L143.53 0Zm20.87 66.6-17.25 31.49-3.38 4.51-3.95-5.28-16.74-30.65V37.48l20.5-9.07 20.82 9.12V66.6ZM282.57 79.73l-40.99-30.02-45.68 26.28-22.69 37.04-17.08 39.65 41.89 5.13 44.4-.93 45.69-26.28-5.54-50.87Zm-47.34 51.29-35.9.75-5.59-.68 2.62-6.06 18.25-29.81 25.26-14.53 18.1 13.25 2.46 22.59-25.2 14.49ZM242.83 163.02l-43.45-1.21-42.88 4.96 16.45 38.87 22.94 38.04 45.56 26.55 41.33-30.22 5.58-50.49-45.53-26.5Zm15.37 62.76-18.36 13.42-25.12-14.64-18.55-30.76-2.19-5.19 6.54-.75 34.96.97 25.18 14.65-2.46 22.3ZM170.15 208.89l-25.63-34.78-25.49 33.63-21.53 38.85-.28 52.72 46.72 20.79 46.56-20.33.26-52.63-20.61-38.25Zm-5.56 73.83-20.55 8.97-20.73-9.23.15-29.08 17.41-31.41 3.36-4.43 3.9 5.3 16.6 30.8-.14 29.08ZM90.25 162.01l-44.42.71L0 188.76l5.26 50.9 40.86 30.21 45.85-26.02 22.86-36.95 17.29-39.55-41.87-5.34Zm1.49 32.79-18.39 29.72-25.37 14.4-18.04-13.35-2.33-22.59 25.28-14.37 35.91-.57 5.59.71-2.65 6.05ZM115.62 114.3l-22.8-38.1-45.43-26.79L5.92 79.36.07 129.82l45.4 26.74 43.44 1.43 42.9-4.73-16.19-38.96Zm-27.71 17.64-34.96-1.15-25.11-14.78 2.58-22.28 18.41-13.29 25.08 14.79 18.42 30.79 2.16 5.2-6.58.72Z"
    fill="white" />
</svg>