<?xml version="1.0" encoding="UTF-8"?><svg id="Layer_2" xmlns="http://www.w3.org/2000/svg" viewBox="0 0 512 512"><g id="Layer_1-2"><rect width="512" height="512" fill="#1e1e1e"/><path d="m255.35,235.92l-36.89-49.36-29.71-54.39V56.87l66.32-29.35,66.9,29.33v75.25l-30.46,55.61-36.16,48.22Zm-16.71-68.46l16.71,22.3,16.73-22.3,22.04-40.4v-47.23l-38.97-17.09-38.54,17.07v47.24l22.04,40.4Z" fill="#fff"/><path d="m273.06,245.49l24.38-56.6,32.39-52.89,65.21-37.51,58.52,42.86,7.92,72.62-65.23,37.51-63.39,1.33-59.79-7.31Zm50.94-48.61l-10.93,25.69,27.66,3.38,46.03-1.03,40.92-23.54-4.61-42.31-34.01-25-40.96,23.56-24.1,39.25Z" fill="#fff"/><path d="m273.58,265.59l61.22-7.07,62.02,1.73,65.01,37.83-7.97,72.08-59,43.13-65.04-37.9-32.75-54.3-23.48-55.5Zm67.52,19.97l-27.68,3.24,10.92,25.66,23.84,39.38,40.81,23.75,34.42-25.09,4.63-41.9-40.83-23.76-46.1-1.28Z" fill="#fff"/><path d="m256.48,276.08l36.59,49.65,29.43,54.61-.38,75.13-66.47,29.01-66.69-29.67.39-75.27,30.74-55.46,36.38-48.01Zm16.35,68.53l-16.6-22.38-16.88,22.21-22.26,40.29-.24,47.23,38.88,17.29,38.65-16.88.24-47.22-21.79-40.53Z" fill="#fff"/><path d="m238.77,266.42l-24.68,56.47-32.63,52.74-65.46,37.15-58.33-43.13-7.5-72.66,65.42-37.17,63.41-1.01,59.77,7.61Zm-51.26,48.35l11.12-25.54-27.63-3.53-46.04.81-41.04,23.33,4.41,42.31,33.89,25.09,41.06-23.39,24.23-39.08Z" fill="#fff"/><path d="m238.34,246.31l-61.25,6.75-62-2.04-64.82-38.17,8.35-72.04,59.21-42.76,64.86,38.24,32.54,54.39,23.12,55.63Zm-67.52-20.33l27.7-3.09-10.67-25.71-23.65-39.5-40.7-23.97-34.49,24.93-4.86,41.88,40.72,23.93,45.95,1.54Z" fill="#fff"/></g></svg>